

<?xml version="1.0" encoding="UTF-8"?>
<svg xmlns="http://www.w3.org/2000/svg" viewBox="0 0 1189 685">
/* This FILE IS NOT USED it is imbedded in the HTML */
  
  <style>
    /* Make all circle fills 60% transparent (i.e., 40% opacity) This is actually ignored and that's good because the image numbers would show through*/
    .marker circle { fill-opacity: 0.4; }
  </style>

<g id="marker-1" class="marker"><circle cx="944.41" cy="356.71" r="18"></circle></g>
<g id="marker-2" class="marker"><circle cx="779.65" cy="293.01" r="18"></circle></g> 
<g id="marker-2A" class="marker"><circle cx="889.21" cy="304.05" r="18"></circle></g>
<g id="marker-3" class="marker"><circle cx="634.42" cy="70.49" r="18"></circle></g>
<g id="marker-4" class="marker"><circle cx="744.83" cy="122.30" r="18"></circle></g>
<g id="marker-5" class="marker"><circle cx="668.39" cy="104.46" r="18"></circle></g>
<g id="marker-6" class="marker"><circle cx="81.52" cy="433.14" r="18"></circle></g>
<g id="marker-7" class="marker"><circle cx="834.00" cy="468.81" r="18"></circle></g>
<g id="marker-8" class="marker"><circle cx="784.74" cy="232.71" r="18"></circle></g>
<g id="marker-9" class="marker"><circle cx="673.48" cy="197.04" r="18"></circle></g>
<g id="marker-10" class="marker"><circle cx="684.53" cy="468.81" r="18"></circle></g>
<g id="marker-11" class="marker"><circle cx="300.64" cy="350.76" r="18"></circle></g>
<g id="marker-12" class="marker"><circle cx="636.96" cy="332.93" r="18"></circle></g>
<g id="marker-13" class="marker"><circle cx="525.71" cy="511.28" r="18"></circle></g>
<g id="marker-13A" class="marker"><circle cx="482.39" cy="556.29" r="18"></circle></g>
<g id="marker-14" class="marker"><circle cx="824.66" cy="148.63" r="18"></circle></g>
<g id="marker-14A" class="marker"><circle cx="825.51" cy="125.70" r="18"></circle></g>
<g id="marker-15" class="marker"><circle cx="966.49" cy="456.07" r="18"></circle></g>
<g id="marker-15A" class="marker"><circle cx="1068.41" cy="601.30" r="18"></circle></g>
<g id="marker-16" class="marker"><circle cx="599.60" cy="200.43" r="18"></circle></g>
<g id="marker-17" class="marker"><circle cx="813.62" cy="266.68" r="18"></circle></g>
<g id="marker-18" class="marker"><circle cx="894.30" cy="264.98" r="18"></circle></g>
<g id="marker-19" class="marker"><circle cx="775.40" cy="450.13" r="18"></circle></g>
<g id="marker-20" class="marker"><circle cx="457.76" cy="389.83" r="18"></circle></g>
<g id="marker-21" class="marker"><circle cx="272.62" cy="426.35" r="18"></circle></g>
<g id="marker-22" class="marker"><circle cx="172.40" cy="355.01" r="18"></circle></g>
<g id="marker-23" class="marker"><circle cx="621.68" cy="282.82" r="18"></circle></g>
<g id="marker-24" class="marker"><circle cx="860.33" cy="189.39" r="18"></circle></g>
<g id="marker-25" class="marker"><circle cx="328.67" cy="590.26" r="18"></circle></g>
<g id="marker-26" class="marker"><circle cx="514.67" cy="248.00" r="18"></circle></g>
<g id="marker-26A" class="marker"><circle cx="436.53" cy="270.93" r="18"></circle></g>
<g id="marker-27" class="marker"><circle cx="738.88" cy="371.99" r="18"></circle></g>
<g id="marker-28" class="marker"><circle cx="659.90" cy="249.69" r="18"></circle></g>
<g id="marker-28A" class="marker"><circle cx="562.23" cy="230.16" r="18"></circle></g>
<g id="marker-29" class="marker"><circle cx="636.96" cy="410.21" r="18"></circle></g>
<g id="marker-30" class="marker"><circle cx="1142.30" cy="462.02" r="18"></circle></g>
</svg>
